name C:/MyDriveSym/Projects/mobilecap/Data\Session20210825_0001\mocap\ForceDataProcessed\DJAsym3_forces.mot
datacolumns 28
datarows 15
range 2.25700000 2.26400000
endheader 
time	R_ground_force_vx	R_ground_force_vy	R_ground_force_vz	R_ground_force_px	R_ground_force_py	R_ground_force_pz	R_ground_torque_x	R_ground_torque_y	R_ground_torque_z	L_ground_force_vx	L_ground_force_vy	L_ground_force_vz	L_ground_force_px	L_ground_force_py	L_ground_force_pz	L_ground_torque_x	L_ground_torque_y	L_ground_torque_z	3_ground_force_vx	3_ground_force_vy	3_ground_force_vz	3_ground_force_px	3_ground_force_py	3_ground_force_pz	3_ground_torque_x	3_ground_torque_y	3_ground_torque_z	
          2.25700000	        -57.65361300	        631.64444900	        -64.80900500	         -0.10046200	          0.00600000	         -0.40367900	          0.00000000	         -2.54615900	          0.00000000	        -54.70879100	        500.26936500	         63.70997400	         -0.09284900	          0.00600000	         -0.70819000	          0.00000000	          8.89947100	          0.00000000	          0.00000000	          0.00000000	          0.00000000	          0.00000000	          0.00000000	          0.00000000	          0.00000000	          0.00000000	          0.00000000	
          2.25750000	        -57.65467800	        630.70820600	        -64.68954700	         -0.10032300	          0.00600000	         -0.40373200	          0.00000000	         -2.53719300	          0.00000000	        -54.64502600	        499.83025500	         63.49939100	         -0.09272100	          0.00600000	         -0.70814500	          0.00000000	          8.88893600	          0.00000000	          0.00000000	          0.00000000	          0.00000000	          0.00000000	          0.00000000	          0.00000000	          0.00000000	          0.00000000	          0.00000000	
          2.25800000	        -57.65237200	        629.78363400	        -64.57233300	         -0.10018500	          0.00600000	         -0.40378400	          0.00000000	         -2.52825000	          0.00000000	        -54.57584000	        499.40216500	         63.29515900	         -0.09259500	          0.00600000	         -0.70810000	          0.00000000	          8.87825200	          0.00000000	          0.00000000	          0.00000000	          0.00000000	          0.00000000	          0.00000000	          0.00000000	          0.00000000	          0.00000000	          0.00000000	
          2.25850000	        -57.64728100	        628.87089500	        -64.45724800	         -0.10004800	          0.00600000	         -0.40383600	          0.00000000	         -2.51934500	          0.00000000	        -54.50132800	        498.98516600	         63.09727400	         -0.09247100	          0.00600000	         -0.70805700	          0.00000000	          8.86743000	          0.00000000	          0.00000000	          0.00000000	          0.00000000	          0.00000000	          0.00000000	          0.00000000	          0.00000000	          0.00000000	          0.00000000	
          2.25900000	        -57.63998700	        627.97009900	        -64.34416600	         -0.09991200	          0.00600000	         -0.40388800	          0.00000000	         -2.51049300	          0.00000000	        -54.42159300	        498.57932300	         62.90573300	         -0.09234900	          0.00600000	         -0.70801400	          0.00000000	          8.85647500	          0.00000000	          0.00000000	          0.00000000	          0.00000000	          0.00000000	          0.00000000	          0.00000000	          0.00000000	          0.00000000	          0.00000000	
          2.25950000	        -57.63105600	        627.08130700	        -64.23295400	         -0.09977700	          0.00600000	         -0.40393900	          0.00000000	         -2.50171800	          0.00000000	        -54.33674400	        498.18471000	         62.72053900	         -0.09223000	          0.00600000	         -0.70797200	          0.00000000	          8.84538500	          0.00000000	          0.00000000	          0.00000000	          0.00000000	          0.00000000	          0.00000000	          0.00000000	          0.00000000	          0.00000000	          0.00000000	
          2.26000000	        -57.62104400	        626.20453700	        -64.12346900	         -0.09964400	          0.00600000	         -0.40398900	          0.00000000	         -2.49304100	          0.00000000	        -54.24690400	        497.80143100	         62.54170000	         -0.09211300	          0.00600000	         -0.70793100	          0.00000000	          8.83415400	          0.00000000	          0.00000000	          0.00000000	          0.00000000	          0.00000000	          0.00000000	          0.00000000	          0.00000000	          0.00000000	          0.00000000	
          2.26050000	        -57.61049100	        625.33977000	        -64.01557000	         -0.09951100	          0.00600000	         -0.40404000	          0.00000000	         -2.48448400	          0.00000000	        -54.15220400	        497.42960100	         62.36923700	         -0.09199800	          0.00600000	         -0.70789000	          0.00000000	          8.82278200	          0.00000000	          0.00000000	          0.00000000	          0.00000000	          0.00000000	          0.00000000	          0.00000000	          0.00000000	          0.00000000	          0.00000000	
          2.26100000	        -57.59992200	        624.48696300	        -63.90911800	         -0.09938000	          0.00600000	         -0.40409000	          0.00000000	         -2.47606800	          0.00000000	        -54.05278600	        497.06932100	         62.20317900	         -0.09188500	          0.00600000	         -0.70785000	          0.00000000	          8.81127300	          0.00000000	          0.00000000	          0.00000000	          0.00000000	          0.00000000	          0.00000000	          0.00000000	          0.00000000	          0.00000000	          0.00000000	
          2.26150000	        -57.58982700	        623.64607100	        -63.80398100	         -0.09924900	          0.00600000	         -0.40413900	          0.00000000	         -2.46781600	          0.00000000	        -53.94879600	        496.72063300	         62.04356800	         -0.09177400	          0.00600000	         -0.70781000	          0.00000000	          8.79963000	          0.00000000	          0.00000000	          0.00000000	          0.00000000	          0.00000000	          0.00000000	          0.00000000	          0.00000000	          0.00000000	          0.00000000	
          2.26200000	        -57.58063700	        622.81705200	        -63.70003300	         -0.09912000	          0.00600000	         -0.40418800	          0.00000000	         -2.45975500	          0.00000000	        -53.84038900	        496.38352200	         61.89044700	         -0.09166600	          0.00600000	         -0.70777200	          0.00000000	          8.78785700	          0.00000000	          0.00000000	          0.00000000	          0.00000000	          0.00000000	          0.00000000	          0.00000000	          0.00000000	          0.00000000	          0.00000000	
          2.26250000	        -57.57271500	        621.99986000	        -63.59715300	         -0.09899200	          0.00600000	         -0.40423700	          0.00000000	         -2.45191600	          0.00000000	        -53.72771600	        496.05792500	         61.74385300	         -0.09156000	          0.00600000	         -0.70773400	          0.00000000	          8.77595300	          0.00000000	          0.00000000	          0.00000000	          0.00000000	          0.00000000	          0.00000000	          0.00000000	          0.00000000	          0.00000000	          0.00000000	
          2.26300000	        -57.56634800	        621.19444300	        -63.49523300	         -0.09886500	          0.00600000	         -0.40428500	          0.00000000	         -2.44432800	          0.00000000	        -53.61091900	        495.74373600	         61.60381500	         -0.09145500	          0.00600000	         -0.70769700	          0.00000000	          8.76391300	          0.00000000	          0.00000000	          0.00000000	          0.00000000	          0.00000000	          0.00000000	          0.00000000	          0.00000000	          0.00000000	          0.00000000	
          2.26350000	        -57.56175900	        620.40072600	        -63.39417300	         -0.09874000	          0.00600000	         -0.40433300	          0.00000000	         -2.43702000	          0.00000000	        -53.49011700	        495.44079700	         61.47036300	         -0.09135300	          0.00600000	         -0.70766100	          0.00000000	          8.75172700	          0.00000000	          0.00000000	          0.00000000	          0.00000000	          0.00000000	          0.00000000	          0.00000000	          0.00000000	          0.00000000	          0.00000000	
          2.26400000	        -57.55911000	        619.61860200	        -63.29387800	         -0.09861500	          0.00600000	         -0.40438000	          0.00000000	         -2.43001300	          0.00000000	        -53.36541300	        495.14891000	         61.34352600	         -0.09125400	          0.00600000	         -0.70762500	          0.00000000	          8.73937900	          0.00000000	          0.00000000	          0.00000000	          0.00000000	          0.00000000	          0.00000000	          0.00000000	          0.00000000	          0.00000000	          0.00000000	
